# Blender v2.76 (sub 0) OBJ File: 'cylinder.blend'
# www.blender.org
mtllib cylinder.mtl
o Cube.000_Cube.001
v 0.306000 -0.000130 0.015000
v 0.306000 1.000057 0.015000
v 0.694000 -0.000130 0.015000
v 0.694000 1.000057 0.015000
v 0.985000 -0.000130 0.306000
v 0.985000 1.000057 0.306000
v 0.985000 -0.000130 0.694000
v 0.985000 1.000057 0.694000
v 0.694000 -0.000130 0.985000
v 0.694000 1.000057 0.985000
v 0.306000 -0.000130 0.985000
v 0.306000 1.000057 0.985000
v 0.015000 -0.000130 0.694000
v 0.015000 1.000057 0.694000
v 0.015000 -0.000130 0.306000
v 0.015000 1.000057 0.306000
vt 0.750000 -0.000000
vt 0.500000 0.000000
vt 0.500000 1.000000
vt 0.750000 1.000000
vt 0.250000 0.000000
vt 0.250000 1.000000
vt -0.000000 0.000000
vt 0.000000 1.000000
vt 1.000000 -0.000000
vt 1.000000 1.000000
vn 0.000000 0.000000 1.000000
vn -0.707100 0.000000 0.707100
vn -1.000000 0.000000 0.000000
vn -0.707100 0.000000 -0.707100
vn 0.000000 0.000000 -1.000000
vn 0.707100 0.000000 -0.707100
vn 1.000000 0.000000 0.000000
vn 0.707100 0.000000 0.707100
usemtl None
s off
f 1/1/1 3/2/1 4/3/1 2/4/1
f 3/2/2 5/5/2 6/6/2 4/3/2
f 5/5/3 7/7/3 8/8/3 6/6/3
f 7/9/4 9/1/4 10/4/4 8/10/4
f 9/1/5 11/2/5 12/3/5 10/4/5
f 11/2/6 13/5/6 14/6/6 12/3/6
f 13/5/7 15/7/7 16/8/7 14/6/7
f 15/9/8 1/1/8 2/4/8 16/10/8
o Cube.002_Cube
v 0.306000 -0.000000 0.015000
v 0.306000 1.000000 0.015000
v 0.694000 -0.000000 0.015000
v 0.694000 1.000000 0.015000
v 0.985000 -0.000000 0.306000
v 0.985000 1.000000 0.306000
v 0.985000 -0.000000 0.694000
v 0.985000 1.000000 0.694000
v 0.694000 -0.000000 0.985000
v 0.694000 1.000000 0.985000
v 0.306000 -0.000000 0.985000
v 0.306000 1.000000 0.985000
v 0.015000 -0.000000 0.694000
v 0.015000 1.000000 0.694000
v 0.015000 -0.000000 0.306000
v 0.015000 1.000000 0.306000
vt 0.750000 -0.000000
vt 0.750000 1.000000
vt 0.500000 1.000000
vt 0.500000 0.000000
vt 0.250000 1.000000
vt 0.250000 0.000000
vt 0.000000 1.000000
vt -0.000000 0.000000
vt 1.000000 -0.000000
vt 1.000000 1.000000
vn 0.000000 0.000000 -1.000000
vn 0.707100 0.000000 -0.707100
vn 1.000000 0.000000 0.000000
vn 0.707100 0.000000 0.707100
vn 0.000000 0.000000 1.000000
vn -0.707100 0.000000 0.707100
vn -1.000000 0.000000 0.000000
vn -0.707100 0.000000 -0.707100
usemtl None
s off
f 17/11/9 18/12/9 20/13/9 19/14/9
f 19/14/10 20/13/10 22/15/10 21/16/10
f 21/16/11 22/15/11 24/17/11 23/18/11
f 23/19/12 24/20/12 26/12/12 25/11/12
f 25/11/13 26/12/13 28/13/13 27/14/13
f 27/14/14 28/13/14 30/15/14 29/16/14
f 29/16/15 30/15/15 32/17/15 31/18/15
f 31/19/16 32/20/16 18/12/16 17/11/16
