# Blender v2.79 (sub 0) OBJ File: 'smallcylinder.blend'
# www.blender.org
mtllib smallcylinder.mtl
o Cube.000_Cube.001
v 0.418520 -0.000093 0.296300
v 0.418520 1.000019 0.296300
v 0.581480 -0.000093 0.296300
v 0.581480 1.000019 0.296300
v 0.703700 -0.000093 0.418520
v 0.703700 1.000019 0.418520
v 0.703700 -0.000093 0.581480
v 0.703700 1.000019 0.581480
v 0.581480 -0.000093 0.703700
v 0.581480 1.000019 0.703700
v 0.418520 -0.000093 0.703700
v 0.418520 1.000019 0.703700
v 0.296300 -0.000093 0.581480
v 0.296300 1.000019 0.581480
v 0.296300 -0.000093 0.418520
v 0.296300 1.000019 0.418520
vt 0.750000 -0.000000
vt 0.500000 0.000000
vt 0.500000 1.000000
vt 0.750000 1.000000
vt 0.250000 0.000000
vt 0.250000 1.000000
vt -0.000000 0.000000
vt 0.000000 1.000000
vt 1.000000 -0.000000
vt 0.750000 0.000000
vt 0.750000 1.000000
vt 1.000000 1.000000
vt 0.500000 0.000000
vt 0.500000 1.000000
vt 0.250000 0.000000
vt 0.250000 1.000000
vt -0.000000 0.000000
vt 0.000000 1.000000
vt 1.000000 -0.000000
vt 1.000000 1.000000
vn 0.0000 0.0000 1.0000
vn -0.7071 0.0000 0.7071
vn -1.0000 0.0000 0.0000
vn -0.7071 0.0000 -0.7071
vn 0.0000 0.0000 -1.0000
vn 0.7071 0.0000 -0.7071
vn 1.0000 0.0000 0.0000
vn 0.7071 0.0000 0.7071
usemtl None
s off
f 1/1/1 3/2/1 4/3/1 2/4/1
f 3/2/2 5/5/2 6/6/2 4/3/2
f 5/5/3 7/7/3 8/8/3 6/6/3
f 7/9/4 9/10/4 10/11/4 8/12/4
f 9/10/5 11/13/5 12/14/5 10/11/5
f 11/13/6 13/15/6 14/16/6 12/14/6
f 13/15/7 15/17/7 16/18/7 14/16/7
f 15/19/8 1/1/8 2/4/8 16/20/8
o Cube.002_Cube
v 0.418520 -0.000000 0.296300
v 0.418520 1.000000 0.296300
v 0.581480 -0.000000 0.296300
v 0.581480 1.000000 0.296300
v 0.703700 -0.000000 0.418520
v 0.703700 1.000000 0.418520
v 0.703700 -0.000000 0.581480
v 0.703700 1.000000 0.581480
v 0.581480 -0.000000 0.703700
v 0.581480 1.000000 0.703700
v 0.418520 -0.000000 0.703700
v 0.418520 1.000000 0.703700
v 0.296300 -0.000000 0.581480
v 0.296300 1.000000 0.581480
v 0.296300 -0.000000 0.418520
v 0.296300 1.000000 0.418520
vt 0.750000 -0.000000
vt 0.750000 1.000000
vt 0.500000 1.000000
vt 0.500000 0.000000
vt 0.250000 1.000000
vt 0.250000 0.000000
vt 0.000000 1.000000
vt -0.000000 0.000000
vt 1.000000 -0.000000
vt 1.000000 1.000000
vt 0.750000 1.000000
vt 0.750000 0.000000
vt 0.500000 1.000000
vt 0.500000 0.000000
vt 0.250000 1.000000
vt 0.250000 0.000000
vt 0.000000 1.000000
vt -0.000000 0.000000
vt 1.000000 -0.000000
vt 1.000000 1.000000
vn 0.0000 0.0000 -1.0000
vn 0.7071 0.0000 -0.7071
vn 1.0000 0.0000 0.0000
vn 0.7071 0.0000 0.7071
vn 0.0000 0.0000 1.0000
vn -0.7071 0.0000 0.7071
vn -1.0000 0.0000 0.0000
vn -0.7071 0.0000 -0.7071
usemtl None
s off
f 17/21/9 18/22/9 20/23/9 19/24/9
f 19/24/10 20/23/10 22/25/10 21/26/10
f 21/26/11 22/25/11 24/27/11 23/28/11
f 23/29/12 24/30/12 26/31/12 25/32/12
f 25/32/13 26/31/13 28/33/13 27/34/13
f 27/34/14 28/33/14 30/35/14 29/36/14
f 29/36/15 30/35/15 32/37/15 31/38/15
f 31/39/16 32/40/16 18/22/16 17/21/16
